<?xml version="1.0" standalone="no"?>
<!DOCTYPE svg PUBLIC "-//W3C//DTD SVG 20010904//EN"
 "http://www.w3.org/TR/2001/REC-SVG-20010904/DTD/svg10.dtd">
<svg width="512" height="512" viewBox="0 0 512 512" fill="none" xmlns="http://www.w3.org/2000/svg">
<path d="M104 254C104.416 195.555 127.953 139.641 169.486 98.4353C211.019 57.2295 267.184 34.0698 325.748 34H342V69.1922H325.748C276.53 69.2424 229.323 88.6881 194.399 123.298C159.475 157.908 139.659 204.883 139.263 254H104Z" fill="#8285F1"/>
<path d="M171 477V441.832H187.23C236.457 441.776 283.671 422.325 318.602 387.712C353.533 353.099 373.356 306.122 373.758 257H409C408.591 315.426 385.07 371.325 343.558 412.529C302.046 453.732 245.903 476.904 187.353 477H171Z" fill="#8285F1"/>
<path d="M171 410V374.726H187.287C218.704 374.696 248.845 362.324 271.183 340.29C293.52 318.256 306.257 288.332 306.633 257H342C341.616 297.686 325.151 336.577 296.183 365.225C267.214 393.873 228.082 409.963 187.287 410H171Z" fill="#5254C7"/>
<path d="M171 254C171.442 213.302 187.929 174.419 216.885 145.779C245.842 117.138 284.936 101.05 325.691 101H342V136.313H325.691C294.312 136.349 264.207 148.714 241.883 170.736C219.559 192.757 206.808 222.667 206.386 254H171Z" fill="#5254C7"/>
<path d="M171 342V306.765H187.289C200.722 306.751 213.619 301.522 223.238 292.189C232.858 282.857 238.441 270.158 238.802 256.792V255.488C238.828 232.558 247.99 210.574 264.279 194.36C280.567 178.146 302.651 169.026 325.686 169H342V204.21H325.686C312.279 204.243 299.412 209.471 289.81 218.785C280.208 228.1 274.627 240.769 274.248 254.11V255.414C274.221 278.35 265.057 300.34 248.764 316.559C232.471 332.777 210.38 341.9 187.339 341.926L171 342Z" fill="#383885"/>
</svg>
